<svg xmlns="http://www.w3.org/2000/svg" xmlns:xlink="http://www.w3.org/1999/xlink" width="1024" zoomAndPan="magnify" viewBox="0 0 768 767.999994" height="1024" preserveAspectRatio="xMidYMid meet" version="1.0"><path fill="#040606" d="M 179.523438 431.933594 C 110.253906 362.664062 110.253906 249.511719 179.523438 180.242188 C 248.796875 110.96875 361.945312 110.96875 431.21875 180.242188 C 500.550781 249.511719 500.550781 362.664062 431.21875 431.933594 C 361.945312 501.207031 249.511719 501.207031 179.523438 431.933594 Z M 716.894531 617.875 L 599.511719 500.492188 C 584.667969 485.648438 562.015625 484.933594 545.800781 496.257812 L 504.070312 454.527344 C 576.859375 357.714844 569.824219 219.109375 481.414062 130.761719 C 384.601562 33.886719 227.574219 33.886719 130.761719 130.761719 C 33.886719 227.574219 33.886719 384.539062 130.761719 481.414062 C 219.109375 569.824219 357.714844 576.859375 454.589844 504.007812 L 496.257812 545.800781 C 484.992188 562.730469 486.363281 584.667969 500.550781 599.511719 L 617.875 716.894531 C 634.863281 733.824219 661.75 733.824219 678.679688 716.894531 L 716.894531 678.679688 C 733.824219 662.40625 733.824219 634.863281 716.894531 617.875 " fill-opacity="1" fill-rule="nonzero"/><path fill="#040606" d="M 381.738281 230.4375 C 370.414062 219.109375 352.050781 219.109375 340.722656 230.4375 L 306.085938 265.074219 L 271.453125 230.4375 C 260.125 219.109375 241.761719 219.109375 230.4375 230.4375 C 219.109375 241.761719 219.109375 260.125 230.4375 271.453125 L 265.074219 306.085938 L 230.4375 340.722656 C 219.109375 352.050781 219.109375 370.414062 230.4375 381.738281 C 236.097656 387.402344 243.195312 390.203125 250.945312 390.203125 C 258.695312 390.203125 265.789062 387.402344 271.453125 381.738281 L 306.085938 347.101562 L 340.722656 381.738281 C 346.386719 387.402344 354.195312 390.203125 361.230469 390.203125 C 368.324219 390.203125 376.074219 387.402344 381.738281 381.738281 C 393.066406 370.414062 393.066406 352.050781 381.738281 340.722656 L 347.101562 306.085938 L 381.738281 271.453125 C 393.066406 260.125 393.066406 241.761719 381.738281 230.4375 " fill-opacity="1" fill-rule="nonzero"/></svg>